<svg xmlns="http://www.w3.org/2000/svg" viewBox="0 0 128 128">
  <defs>
    <linearGradient id="g" x1="0" x2="1" y1="0" y2="1">
      <stop offset="0%" stop-color="#1747b9"/>
      <stop offset="100%" stop-color="#0f1720"/>
    </linearGradient>
  </defs>
  <rect width="128" height="128" rx="28" fill="url(#g)"/>
  <path d="M28 74c8-18 21-31 40-38 17-6 41-7 59 7 6 4 11 11 15 19v8H20l8-6z" fill="#fff" opacity=".96"/>
  <circle cx="42" cy="82" r="12" fill="#d7e5ff"/>
  <circle cx="92" cy="82" r="12" fill="#d7e5ff"/>
  <path d="M44 46c10-8 25-13 42-11 10 1 20 4 29 11-10 1-21 2-36 2-13 0-24 0-35-2z" fill="#bed0ff"/>
  <text x="64" y="116" font-size="18" text-anchor="middle" font-family="Tahoma, sans-serif" font-weight="700" fill="#fff">BC</text>
</svg>
